<svg width="20" height="20" viewBox="0 0 20 20" fill="none" xmlns="http://www.w3.org/2000/svg">
<g clip-path="url(#clip0_2024_310)">
<path d="M16.7967 17.1758C16.7429 17.2738 16.6637 17.3556 16.5676 17.4126C16.4714 17.4696 16.3616 17.4998 16.2498 17.5H12.4998C12.3946 17.5 12.2911 17.4734 12.199 17.4227C12.1068 17.3721 12.0289 17.2989 11.9725 17.2102L8.80919 12.2391L4.21232 17.2953C4.10026 17.4157 3.94526 17.487 3.78095 17.4939C3.61663 17.5008 3.45622 17.4426 3.33451 17.332C3.2128 17.2214 3.13959 17.0673 3.13076 16.903C3.12192 16.7388 3.17817 16.5777 3.28732 16.4547L8.1131 11.1422L3.22247 3.46094C3.16224 3.36644 3.12852 3.25749 3.12485 3.14548C3.12117 3.03348 3.14768 2.92255 3.20159 2.82431C3.25551 2.72607 3.33484 2.64413 3.43129 2.58708C3.52774 2.53002 3.63775 2.49995 3.74982 2.5H7.49982C7.605 2.50003 7.70848 2.52661 7.80067 2.57728C7.89285 2.62795 7.97075 2.70106 8.02716 2.78984L11.1904 7.76094L15.7873 2.70469C15.8994 2.58431 16.0544 2.51296 16.2187 2.50609C16.383 2.49923 16.5434 2.5574 16.6651 2.66801C16.7868 2.77862 16.86 2.93275 16.8689 3.09697C16.8777 3.2612 16.8215 3.42228 16.7123 3.54531L11.8865 8.85391L16.7772 16.5398C16.8371 16.6344 16.8705 16.7433 16.8739 16.8551C16.8773 16.967 16.8507 17.0777 16.7967 17.1758Z" fill="white"/>
</g>
<defs>
<clipPath id="clip0_2024_310">
<rect width="20" height="20" fill="white"/>
</clipPath>
</defs>
</svg>
