<svg width="42" height="24" viewBox="0 0 42 24" fill="none" xmlns="http://www.w3.org/2000/svg">
<path d="M5.38582 23.9681C3.72864 23.9681 2.4114 23.2882 1.43409 21.9283C0.478031 20.5684 0 18.571 0 15.9363C0 14.3639 0.180589 12.8234 0.541768 11.3147C0.902947 9.80611 1.40222 8.40372 2.0396 7.10757C2.67697 5.79017 3.40995 4.63214 4.23854 3.63347C5.08837 2.61355 5.99132 1.82736 6.94738 1.2749C7.92469 0.701196 8.92325 0.414343 9.94305 0.414343C11.6002 0.414343 12.9068 1.09429 13.8629 2.45418C14.8402 3.79283 15.3289 5.79017 15.3289 8.44622C15.3289 10.0186 15.1483 11.5591 14.7871 13.0677C14.4259 14.5764 13.9266 15.9894 13.2893 17.3068C12.6519 18.6029 11.9083 19.761 11.0585 20.7809C10.2299 21.7795 9.32692 22.5657 8.34961 23.1394C7.39355 23.6919 6.40562 23.9681 5.38582 23.9681ZM5.32208 23.1394C6.10817 23.1394 6.87302 22.8313 7.61663 22.2151C8.38148 21.5777 9.09321 20.7171 9.75183 19.6335C10.4317 18.5286 11.0266 17.2643 11.5365 15.8406C12.0464 14.3958 12.4394 12.8659 12.7156 11.251C13.0131 9.63612 13.1618 8 13.1618 6.34263C13.1618 2.94289 12.1101 1.24303 10.0068 1.24303C9.22069 1.24303 8.44521 1.56175 7.68036 2.1992C6.93676 2.8154 6.22503 3.67596 5.54516 4.78088C4.88654 5.86454 4.30228 7.12882 3.79238 8.5737C3.28248 9.99734 2.87881 11.5166 2.58137 13.1315C2.30517 14.7463 2.16707 16.3825 2.16707 18.0398C2.16707 21.4396 3.21874 23.1394 5.32208 23.1394Z" fill="white"/>
<path d="M17.8477 24C17.1466 24 16.6473 23.745 16.3499 23.2351C16.0525 22.7039 16.0418 21.8433 16.318 20.6534L20.3654 3.28287C20.4716 2.9004 20.4716 2.63479 20.3654 2.48606C20.2804 2.33732 20.0892 2.25232 19.7917 2.23108L18.8357 2.13546C18.517 2.11421 18.3789 1.9761 18.4214 1.72112C18.4639 1.52988 18.6126 1.41301 18.8675 1.37052C19.6324 1.24303 20.3122 1.09429 20.9071 0.924302C21.502 0.733067 21.98 0.488711 22.3412 0.191234C22.5112 0.0637448 22.6705 0 22.8193 0C23.0742 0 23.1698 0.159362 23.1061 0.478087L18.3895 20.6853C18.2833 21.1527 18.262 21.5246 18.3258 21.8008C18.4107 22.0558 18.6126 22.1833 18.9313 22.1833C19.3137 22.1833 19.728 21.907 20.1742 21.3546C20.6416 20.7809 21.1621 19.7078 21.7357 18.1355C21.8207 17.8592 21.9694 17.7211 22.1819 17.7211C22.5006 17.7211 22.5856 17.9124 22.4368 18.2948C21.9907 19.7397 21.4914 20.8871 20.939 21.7371C20.4079 22.5657 19.8767 23.1501 19.3456 23.49C18.8144 23.83 18.3151 24 17.8477 24Z" fill="white"/>
<path d="M25.9817 23.9681C25.2169 23.9681 24.622 23.6388 24.1971 22.9801C23.7722 22.3214 23.5597 21.3546 23.5597 20.0797C23.5597 18.8685 23.7297 17.6574 24.0696 16.4462C24.4095 15.2138 24.8769 14.0452 25.4718 12.9402C26.0667 11.8353 26.736 10.8579 27.4796 10.008C28.2444 9.15803 29.0411 8.48871 29.8697 8C30.7195 7.49004 31.5588 7.23506 32.3873 7.23506C32.791 7.23506 33.1734 7.32005 33.5346 7.49004C33.8958 7.63878 34.1932 7.88313 34.4269 8.22311C34.5544 8.41434 34.6819 8.50996 34.8094 8.50996C34.9368 8.50996 35.0643 8.41434 35.1918 8.22311C35.4255 7.88313 35.6167 7.67065 35.7654 7.58566C35.9142 7.47942 36.0522 7.42629 36.1797 7.42629C36.4559 7.42629 36.5621 7.57503 36.4984 7.87251L33.6621 20.0797C33.3434 21.4608 33.5559 22.1514 34.2995 22.1514C34.7881 22.1514 35.2237 21.822 35.6061 21.1633C36.0098 20.5046 36.4134 19.4847 36.8171 18.1036C36.8808 17.8699 37.0189 17.753 37.2314 17.753C37.3801 17.753 37.4757 17.8167 37.5182 17.9442C37.5607 18.0717 37.5607 18.2205 37.5182 18.3904C37.1145 20.3878 36.5728 21.822 35.8929 22.6932C35.213 23.5432 34.3951 23.9681 33.439 23.9681C32.6104 23.9681 32.0155 23.6175 31.6544 22.9163C31.3144 22.2151 31.2826 21.259 31.5588 20.0478L31.9731 18.2948C32.0155 18.1461 31.9837 18.0611 31.8774 18.0398C31.7925 18.0186 31.7181 18.0717 31.6544 18.1992C30.4858 20.3453 29.4448 21.8433 28.5312 22.6932C27.6389 23.5432 26.7891 23.9681 25.9817 23.9681ZM26.7784 22.3426C27.2883 22.3426 27.8514 22.0345 28.4675 21.4183C29.0836 20.8021 29.6891 20.0053 30.284 19.0279C30.9001 18.0505 31.4632 16.9987 31.9731 15.8725C32.483 14.7463 32.8866 13.6627 33.1841 12.6215C33.5028 11.5803 33.6621 10.6985 33.6621 9.9761C33.6621 8.67995 33.2053 8.03187 32.2917 8.03187C31.7393 8.03187 31.1551 8.28685 30.539 8.79681C29.9228 9.28552 29.3279 9.95485 28.7543 10.8048C28.2019 11.6547 27.692 12.6215 27.2246 13.7052C26.7784 14.7676 26.4173 15.8831 26.1411 17.0518C25.8649 18.1992 25.7268 19.3254 25.7268 20.4303C25.7268 21.174 25.8118 21.6839 25.9817 21.9602C26.1729 22.2151 26.4385 22.3426 26.7784 22.3426Z" fill="white"/>
<path d="M40.2154 23.9681C39.7692 23.9681 39.408 23.83 39.1318 23.5538C38.8556 23.2563 38.7175 22.8951 38.7175 22.4701C38.7175 21.9177 38.9087 21.4714 39.2912 21.1315C39.6736 20.7915 40.0773 20.6215 40.5022 20.6215C40.9271 20.6215 41.2776 20.7703 41.5538 21.0677C41.8513 21.344 42 21.6946 42 22.1195C42 22.672 41.8088 23.1182 41.4264 23.4582C41.0439 23.7981 40.6403 23.9681 40.2154 23.9681Z" fill="white"/>
</svg>
